<svg width="44" height="25" viewBox="0 0 44 25" fill="none" xmlns="http://www.w3.org/2000/svg">
<path d="M8.17841 13.3232C6.55985 13.0055 5.31692 12.3711 4.44712 11.1821C3.56733 9.98004 3.29154 8.64228 3.60352 7.22716C4.11392 4.92537 6.3527 3.24365 8.74996 3.26983C11.1485 3.24365 13.3872 4.92537 13.8964 7.22716C14.2096 8.64228 13.9326 9.98004 13.0528 11.1821C12.183 12.3711 10.9401 13.0055 9.32151 13.3232C18.3727 13.4887 17.4754 23.2695 17.4754 23.2695H15.8706V21.658C15.3028 16.2261 11.9696 14.9752 8.76992 14.974C8.76368 14.974 8.75744 14.974 8.74996 14.974C8.74372 14.974 8.73748 14.974 8.72999 14.974C5.53032 14.9752 2.19586 16.2261 1.62931 21.658V23.2695H0.0244789C0.0244789 23.2695 -0.871531 13.4887 8.17841 13.3232ZM8.74996 11.6641C8.75869 11.6641 8.76868 11.6641 8.77741 11.6641C10.7329 11.6451 12.3302 10.0848 12.3028 8.21977C12.2778 6.43213 10.6518 4.92418 8.75245 4.92775H8.75121H8.74996C6.85062 4.92418 5.22333 6.43094 5.19837 8.21977C5.16967 10.0848 6.76826 11.6463 8.7225 11.6641C8.73249 11.6641 8.74122 11.6641 8.74996 11.6641Z" fill="white"/>
<path d="M27.41 8.8898L26 10.2998L32 16.2998L38 10.2998L36.59 8.8898L32 13.4698L27.41 8.8898Z" fill="white"/>
</svg>
