<svg width="220" height="65" viewBox="0 0 220 65" fill="none" xmlns="http://www.w3.org/2000/svg">
<path d="M51.348 13.766H13.7685V22.8712H51.348V13.766Z" fill="white"/>
<path d="M80.0795 41.3815H91.6803L92.5995 38.1416H85.5407L86.165 35.9685H91.9015L92.8256 32.7286H87.0891L87.6643 30.7325H94.4232L95.3424 27.5123H84.0218L80.0795 41.3815Z" fill="white"/>
<path d="M75.2918 27.5123H68.6115L64.6446 41.3815H69.2063L70.4303 37.0649H72.7258C72.9765 37.0649 73.2223 37.0649 73.473 37.0403C77.0122 36.8142 79.0817 34.9951 79.878 32.178C80.6743 29.3363 79.2783 27.5123 75.2918 27.5123ZM75.5424 32.2026C75.218 33.3235 74.4217 33.7758 73.473 33.825H71.379L72.2294 30.7325H73.5221C74.4954 30.7325 75.8915 30.9046 75.5424 32.2026Z" fill="white"/>
<path d="M28.5201 31.2586C28.5201 30.5998 27.9548 30.2016 27.3354 30.2016H24.2042L23.4816 32.7679H26.8341C27.8172 32.7679 28.525 32.1485 28.525 31.2586H28.5201Z" fill="white"/>
<path d="M21.8546 38.4317H24.8629C26.5588 38.4317 26.8291 37.5615 26.9864 37.2812C27.1093 37.06 27.1978 36.411 27.0159 36.1062C26.8341 35.7965 26.7554 35.4376 25.4331 35.4376H22.7246L21.8595 38.4317H21.8546Z" fill="white"/>
<path d="M44.0336 31.4454C44.0336 31.175 43.9796 30.2212 42.5737 30.2212H39.6145C39.5998 30.2999 38.7543 33.3284 38.7543 33.3284H41.7725C43.4782 33.3284 44.0336 32.0796 44.0336 31.4454Z" fill="white"/>
<path d="M47.2484 29.6165C47.7252 30.8997 47.3615 32.1927 46.8798 33.0088C46.4619 33.7119 45.41 34.8132 44.1959 35.1377C44.825 35.1377 45.5673 35.6391 45.6165 36.7552C45.6312 37.0747 45.8032 41.4208 45.8032 41.4208H42.0232L41.8905 37.5467C41.8511 37.0944 42.0035 36.0423 40.3125 36.0423H37.9875L36.4981 41.3078H32.428L36.4489 27.4189H27.6943C28.8937 27.4435 30.5306 27.7335 31.376 28.7611C32.3985 30.0098 32.079 31.5634 31.671 32.4189C31.5923 32.586 30.9435 33.7168 29.8326 34.2281C29.9309 34.2576 30.8255 34.8279 31.1303 35.7768C31.5628 37.1141 31.0467 39.0364 30.0832 39.8476C29.3607 40.4523 28.7413 41.2832 25.1873 41.2832H16.9832L20.9894 27.4189H13.7635V51.234H51.348V27.4238H43.5421C44.7906 27.4533 46.5553 27.7729 47.2484 29.6165Z" fill="white"/>
<path d="M136.918 27.1386C136.22 27.1386 135.522 27.2124 134.849 27.3648C131.432 28.1121 128.64 30.6834 127.593 34.3264C126.271 39.0659 128.414 41.7601 132.755 41.7601C133.477 41.7601 134.175 41.6863 134.849 41.5339C138.142 40.7866 141.033 38.294 142.158 34.3756C143.205 30.708 141.883 27.1436 136.923 27.1436L136.918 27.1386ZM137.592 34.3707C137.095 36.1898 136.196 37.6401 134.849 38.1613C134.5 38.2842 134.126 38.3628 133.728 38.3628C131.56 38.3628 131.634 36.1406 132.155 34.3707C132.553 32.9499 133.428 31.3029 134.849 30.7276C135.173 30.6047 135.522 30.5261 135.92 30.5261C137.941 30.4769 138.142 32.473 137.592 34.3658V34.3707Z" fill="white"/>
<path d="M110.959 27.5123H98.2131L97.1906 31.1554H101.28L98.3605 41.3815H102.903L105.817 31.1554H109.907L110.959 27.5123Z" fill="white"/>
<path d="M174.803 31.7306C174.852 31.6322 174.876 31.5585 174.901 31.4553C175.201 30.4081 175.201 29.5575 174.803 28.9381C174.203 27.9646 172.684 27.5172 169.862 27.5172H163.305L159.363 41.3864H163.9L165.296 36.5487H166.667C167.513 36.5487 168.039 36.647 168.339 36.8732C168.811 37.2222 168.737 37.8712 168.412 38.9676C168.388 39.0659 168.363 39.1445 168.339 39.2183C168.039 40.3146 167.94 41.116 167.965 41.3864H172.581L172.679 40.9636C172.153 40.9636 172.379 40.3638 172.905 38.5447C173.702 35.7522 172.905 35.4031 171.607 34.8525C173.254 34.4297 174.326 33.2055 174.798 31.7355L174.803 31.7306ZM170.487 32.178C170.236 33.0531 169.513 33.4267 168.344 33.5005H166.151L166.948 30.7325H169.066C170.113 30.7325 170.762 31.2045 170.487 32.178Z" fill="white"/>
<path d="M206.179 31.529C206.528 29.1101 205.333 27.1386 201.489 27.1386C197.999 27.1386 195.03 28.6087 194.204 31.5782C192.685 36.8682 201.086 35.4228 200.491 37.5418C200.319 38.1908 199.444 38.5644 198.324 38.5644C197.876 38.5644 197.424 38.4415 197.124 38.2153C196.8 37.9646 196.623 37.6155 196.677 37.119H192.312C191.712 39.6116 193.482 41.7601 197.149 41.7601C200.816 41.7601 204.109 40.1868 205.004 36.9715C206.449 31.9322 198.093 33.2055 198.692 31.1357C198.815 30.6391 199.341 30.3392 200.364 30.3392C200.786 30.3392 201.184 30.413 201.46 30.59C201.735 30.762 201.907 31.0619 201.833 31.5388H206.174L206.179 31.529Z" fill="white"/>
<path d="M183.459 27.5123L183.159 27.9597L174.803 40.9538L174.527 41.3766H178.991L180.038 39.5526H184.575V41.3766H189.112L188.089 27.5074H183.449L183.459 27.5123ZM183.159 36.6667H181.738L183.159 34.1249L184.555 31.6814L184.604 36.6716H183.159V36.6667Z" fill="white"/>
<path d="M120.382 27.5123H113.85L110.433 39.5624L109.912 41.3864H114.474L115.821 36.5487H117.192C118.042 36.5487 118.564 36.647 118.863 36.8732C119.335 37.2222 119.262 37.8712 118.937 38.9676C118.913 39.0659 118.888 39.1445 118.863 39.2183C118.588 40.3146 118.465 41.116 118.49 41.3864H123.106L123.228 40.9636C122.678 40.9636 122.904 40.3638 123.43 38.5447C124.226 35.7522 123.43 35.4031 122.132 34.8525C123.877 34.4051 124.949 33.058 125.426 31.4602C126.173 28.766 125.028 27.5172 120.387 27.5172L120.382 27.5123ZM121.007 32.178C120.756 33.0531 120.033 33.4267 118.863 33.5005H116.671L117.467 30.7325H119.586C120.633 30.7325 121.282 31.2045 121.007 32.178Z" fill="white"/>
<path d="M154.029 27.5123H147.369L143.426 41.3815H150.21C150.51 41.3815 150.81 41.3815 151.11 41.3569C154.251 41.1799 156.571 40.059 157.372 37.2173C157.795 35.6981 157.372 34.4002 155.976 34.0216C157.023 33.471 158.247 32.4238 158.645 31.0029C159.417 28.235 157.151 27.5123 154.029 27.5123ZM153.233 36.8682C152.958 37.8663 152.137 38.117 151.114 38.1416H148.922L149.645 35.5998H151.114C152.535 35.5998 153.582 35.6735 153.233 36.8732V36.8682ZM154.157 31.8535C153.931 32.6499 153.159 33.0531 152.235 33.0531H150.362L151.011 30.7325H152.609C153.582 30.7325 154.452 30.7571 154.157 31.8535Z" fill="white"/>
</svg>
