<svg width="135" height="42" viewBox="0 0 135 42" fill="none" xmlns="http://www.w3.org/2000/svg">
<path fill-rule="evenodd" clip-rule="evenodd" d="M135 14H128.053C125.738 14 123.885 15.8667 123.885 18.2V28H126.664V22.4H132.221V19.6H126.664V18.2C126.664 17.5 127.127 16.8 128.053 16.8H135V14ZM20.8405 14C30.7976 14 38.9022 15.8667 38.9022 18.2C38.9022 18.9 37.976 19.6 36.5866 20.3C34.5026 19.6 31.4923 18.9 27.7873 18.4333C27.7873 19.3667 27.7873 20.0667 27.7873 21C27.7873 21.4667 27.7873 21.7 27.7873 22.1667C26.3979 22.1667 25.0086 22.4 23.6192 22.4C23.6192 21.9333 23.6192 21.4667 23.6192 21C23.6192 20.0667 23.6192 19.1333 23.6192 18.2C22.693 18.2 21.7667 18.2 20.8405 18.2C20.3774 18.2 19.9142 18.2 19.4511 18.2C19.4511 16.8 19.6827 15.4 19.6827 14C20.1458 14 20.3774 14 20.8405 14ZM41.681 18.2V23.8C41.681 26.3667 35.6604 28.4667 27.3242 29.1667C26.6295 35 25.2401 39.2 23.6192 39.2C22.9245 39.2 22.2298 38.2667 21.5352 36.8667C22.2298 35 22.693 32.4333 23.1561 29.4C22.4614 29.4 21.5352 29.4 20.8405 29.4C20.1458 29.4 19.2196 29.4 18.5249 29.4C19.4511 36.8667 21.3036 42 23.6192 42H18.0617C15.7461 42 13.6621 36.6333 12.9674 28.9333C5.3259 28.2333 0 26.1333 0 23.8V18.2C0 21.2333 9.26244 23.8 20.8405 23.8C32.4185 23.8 41.681 21.2333 41.681 18.2ZM23.6192 0H18.0617C15.5146 0 13.4305 6.06667 12.7358 14.4667C6.94683 15.1667 2.77873 16.5667 2.77873 18.2C2.77873 18.9 3.70497 19.6 5.09434 20.3C6.94683 19.6 9.494 19.1333 12.5043 18.6667C12.5043 19.3667 12.5043 20.3 12.5043 21C12.5043 21.2333 12.5043 21.7 12.5043 21.9333C14.1252 22.1667 16.2093 22.1667 18.0617 22.4C18.0617 21.9333 18.0617 21.4667 18.0617 21C18.0617 9.33333 20.6089 0 23.6192 0ZM27.3242 12.8333C26.6295 7 25.2401 2.8 23.6192 2.8C22.9245 2.8 22.2298 3.73333 21.5352 5.13333C22.2298 7 22.693 9.56667 23.1561 12.6C24.5455 12.6 25.9348 12.8333 27.3242 12.8333ZM59.9743 14V16.8H55.8062V28H53.0274V16.8H48.8593V14H59.9743ZM80.1201 14C76.4151 14 73.1732 17.0333 73.1732 21C73.1732 24.9667 76.4151 28 80.1201 28H84.9828V25.2H80.1201C77.8045 25.2 75.952 23.3333 75.952 21C75.952 18.6667 77.8045 16.8 80.1201 16.8H84.9828V14H80.1201ZM98.8765 14H105.823C108.139 14 109.991 15.8667 109.991 18.2C109.991 20.5333 108.139 22.4 105.823 22.4H104.897L109.991 28H106.055L98.8765 19.6H105.823C106.518 19.6 107.213 18.9 107.213 18.2C107.213 17.5 106.518 16.8 105.823 16.8H98.8765V14ZM115.549 14H118.328L122.496 28H119.485L116.938 19.1333L114.16 28H111.381L115.549 14ZM92.6244 14C88.9194 14 85.6775 17.0333 85.6775 21C85.6775 24.9667 88.9194 28 92.6244 28H97.4871V19.6H94.7084V25.2H92.6244C90.3087 25.2 88.4563 23.3333 88.4563 21C88.4563 18.6667 90.3087 16.8 92.6244 16.8H97.4871V14H92.6244ZM72.4786 14H65.5317C63.2161 14 61.3636 15.8667 61.3636 18.2V23.8C61.3636 26.1333 63.2161 28 65.5317 28H72.4786V25.2H65.5317C64.6055 25.2 64.1424 24.5 64.1424 23.8V22.4H69.6998V19.6H64.1424V18.2C64.1424 17.5 64.6055 16.8 65.5317 16.8H72.4786V14ZM57.8902 36.6333C58.5849 36.6333 59.2796 36.1667 59.2796 35.2333C59.2796 34.5333 58.5849 34.0667 57.8902 34.0667H54.4168V36.6333H57.8902ZM57.8902 32.6667C59.5111 32.6667 60.669 33.8333 60.669 35.2333C60.669 36.8667 59.5111 38.0333 57.8902 38.0333H54.4168V42H53.0274V32.6667H57.8902ZM65.3002 40.6C64.6055 40.6 64.1424 40.1333 64.1424 39.4333V32.6667H62.753V39.4333C62.753 40.8333 63.9108 42 65.3002 42H67.3842C69.0051 42 70.1629 40.8333 70.1629 39.4333V32.6667H68.7736V39.4333C68.7736 40.1333 68.0789 40.6 67.3842 40.6H65.3002ZM76.8782 42C74.331 42 72.247 39.9 72.247 37.3333C72.247 34.7667 74.331 32.6667 76.8782 32.6667H79.8885V34.0667H76.8782C75.0257 34.0667 73.6364 35.4667 73.6364 37.3333C73.6364 39.2 75.0257 40.6 76.8782 40.6H79.8885V42H76.8782ZM96.3293 36.6333C97.024 36.6333 97.7187 36.1667 97.7187 35.2333C97.7187 34.5333 97.024 34.0667 96.3293 34.0667H92.8559V36.6333H96.3293ZM98.8765 42L97.2556 37.8C98.4134 37.5667 99.1081 36.4 99.1081 35.2333C99.1081 33.8333 97.7187 32.6667 96.3293 32.6667H91.4666V42H92.8559V38.0333H95.8662L97.2556 42H98.8765ZM81.741 36.6333H89.1509V38.0333H81.741V36.6333ZM101.192 32.6667H102.581V42H101.192V32.6667ZM109.528 32.6667C112.075 32.6667 114.16 34.7667 114.16 37.3333C114.16 39.9 112.075 42 109.528 42C106.981 42 104.897 39.9 104.897 37.3333C104.897 34.7667 106.981 32.6667 109.528 32.6667ZM109.528 34.0667C111.381 34.0667 112.77 35.4667 112.77 37.3333C112.77 39.2 111.381 40.6 109.528 40.6C107.676 40.6 106.286 39.2 106.286 37.3333C106.286 35.4667 107.676 34.0667 109.528 34.0667Z" fill="white"/>
</svg>
