<svg width="347" height="73" viewBox="0 0 347 73" fill="#5A2467" xmlns="http://www.w3.org/2000/svg">
<g clip-path="url(#clip0_194_1852)">
<path d="M14.8395 9.11842H58.6079C61.617 9.11842 64.079 11.5804 64.079 14.5895V47.4158C64.079 50.4249 61.617 52.8868 58.6079 52.8868H42.1947V44.5841C47.0254 42.4627 50.4013 37.6178 50.4013 31.9804C50.4013 26.343 47.0254 21.4981 42.1947 19.3766V31.9804L39.4592 34.7299H33.9882L31.2526 31.9804V19.3766C26.422 21.4981 23.0461 26.343 23.0461 31.9804C23.0461 37.6178 26.422 42.4627 31.2526 44.5841V52.8868H20.3105L9.36842 63.8289V14.5895C9.36842 11.5804 11.8304 9.11842 14.8395 9.11842Z"/>
<path d="M95.9858 10.1827H89.6105V24.9938H93.0191V20.9102H95.9858C99.9203 20.9102 102.382 18.8578 102.382 15.557C102.382 12.2351 99.9203 10.1827 95.9858 10.1827ZM95.7964 18.1172H93.0191V12.9756H95.7964C97.8794 12.9756 98.9314 13.9278 98.9314 15.557C98.9314 17.1651 97.8794 18.1172 95.7964 18.1172Z"/>
<path d="M117.86 24.9938L114.557 20.2331C116.472 19.4079 117.587 17.7787 117.587 15.557C117.587 12.2351 115.125 10.1827 111.191 10.1827H104.815V24.9938H108.224V20.8678H111.191H111.359L114.199 24.9938H117.86ZM114.136 15.557C114.136 17.1651 113.084 18.1384 111.001 18.1384H108.224V12.9756H111.001C113.084 12.9756 114.136 13.9278 114.136 15.557Z"/>
<path d="M127.42 25.2477C132.049 25.2477 135.479 22.0104 135.479 17.5882C135.479 13.166 132.049 9.92876 127.42 9.92876C122.77 9.92876 119.362 13.1872 119.362 17.5882C119.362 21.9893 122.77 25.2477 127.42 25.2477ZM127.42 22.3278C124.79 22.3278 122.812 20.4023 122.812 17.5882C122.812 14.7741 124.79 12.8487 127.42 12.8487C130.05 12.8487 132.028 14.7741 132.028 17.5882C132.028 20.4023 130.05 22.3278 127.42 22.3278Z"/>
<path d="M148.182 10.1827V19.1751L140.86 10.1827H138.04V24.9938H141.407V16.0013L148.75 24.9938H151.548V10.1827H148.182Z"/>
<path d="M158.084 24.9938H161.492V12.9756H166.205V10.1827H153.371V12.9756H158.084V24.9938Z"/>
<path d="M114.285 62.7603H121.106L108.548 34.6755H102.128L89.6105 62.7603H96.2706L98.7581 56.7421H111.797L114.285 62.7603ZM100.844 51.8072L105.298 41.0548L109.751 51.8072H100.844Z"/>
<path d="M144.642 48.1562C146.928 46.9526 148.373 44.786 148.373 41.9776C148.373 37.6044 144.762 34.6755 137.741 34.6755H124.019V62.7603H138.543C145.925 62.7603 149.777 59.9518 149.777 55.0971C149.777 51.5665 147.771 49.1592 144.642 48.1562ZM136.938 39.5703C140.108 39.5703 141.833 40.6536 141.833 42.8602C141.833 45.0669 140.108 46.1903 136.938 46.1903H130.479V39.5703H136.938ZM138.062 57.8655H130.479V50.9246H138.062C141.432 50.9246 143.237 52.0479 143.237 54.4151C143.237 56.8224 141.432 57.8655 138.062 57.8655Z"/>
<path d="M175.681 62.7603H182.502L169.944 34.6755H163.524L151.007 62.7603H157.667L160.154 56.7421H173.194L175.681 62.7603ZM162.241 51.8072L166.694 41.0548L171.147 51.8072H162.241Z"/>
<path d="M204.754 34.6755V51.727L190.792 34.6755H185.416V62.7603H191.835V45.7088L205.837 62.7603H211.173V34.6755H204.754Z"/>
<path d="M217.818 62.7603H230.576C239.764 62.7603 246.063 57.2236 246.063 48.7179C246.063 40.2122 239.764 34.6755 230.576 34.6755H217.818V62.7603ZM224.318 57.4242V40.0116H230.255C235.832 40.0116 239.483 43.3417 239.483 48.7179C239.483 54.0941 235.832 57.4242 230.255 57.4242H224.318Z"/>
<path d="M264.566 63.2417C273.392 63.2417 279.932 57.1032 279.932 48.7179C279.932 40.3326 273.392 34.1941 264.566 34.1941C255.699 34.1941 249.2 40.3727 249.2 48.7179C249.2 57.0631 255.699 63.2417 264.566 63.2417ZM264.566 57.705C259.551 57.705 255.779 54.054 255.779 48.7179C255.779 43.3818 259.551 39.7308 264.566 39.7308C269.581 39.7308 273.352 43.3818 273.352 48.7179C273.352 54.054 269.581 57.705 264.566 57.705Z"/>
<path d="M304.155 34.6755V51.727L290.193 34.6755H284.817V62.7603H291.236V45.7088L305.239 62.7603H310.575V34.6755H304.155Z"/>
<path d="M330.82 63.2417C339.647 63.2417 346.187 57.1032 346.187 48.7179C346.187 40.3326 339.647 34.1941 330.82 34.1941C321.954 34.1941 315.454 40.3727 315.454 48.7179C315.454 57.0631 321.954 63.2417 330.82 63.2417ZM330.82 57.705C325.805 57.705 322.034 54.054 322.034 48.7179C322.034 43.3818 325.805 39.7308 330.82 39.7308C335.836 39.7308 339.607 43.3818 339.607 48.7179C339.607 54.054 335.836 57.705 330.82 57.705Z"/>
</g>
<defs>
<clipPath id="clip0_194_1852">
<rect width="346.5" height="72.9474" fill="white" transform="translate(0.25)"/>
</clipPath>
</defs>
</svg>
