<svg width="164" height="41" viewBox="0 0 164 41" fill="none" xmlns="http://www.w3.org/2000/svg">
<path d="M8.00176 5.0011H32.007C33.6574 5.0011 35.0077 6.3514 35.0077 8.00176V26.0057C35.0077 27.6561 33.6574 29.0064 32.007 29.0064H23.0051V24.4526C25.6545 23.2891 27.506 20.6319 27.506 17.54C27.506 14.4481 25.6545 11.7909 23.0051 10.6273V17.54L21.5047 19.048H18.5041L17.0037 17.54V10.6273C14.3543 11.7909 12.5027 14.4481 12.5027 17.54C12.5027 20.6319 14.3543 23.2891 17.0037 24.4526V29.0064H11.0024L5.0011 35.0077V8.00176C5.0011 6.3514 6.3514 5.0011 8.00176 5.0011Z" fill="white"/>
<path d="M51.8554 5.52229H49.0107V12.1311H50.5316V10.309H51.8554C53.611 10.309 54.7095 9.39317 54.7095 7.92035C54.7095 6.43808 53.611 5.52229 51.8554 5.52229ZM51.7709 9.06273H50.5316V6.76852H51.7709C52.7004 6.76852 53.1698 7.19338 53.1698 7.92035C53.1698 8.63787 52.7004 9.06273 51.7709 9.06273Z" fill="white"/>
<path d="M61.616 12.1311L60.1421 10.0068C60.9964 9.63864 61.494 8.91167 61.494 7.92035C61.494 6.43808 60.3955 5.52229 58.6399 5.52229H55.7953V12.1311H57.3162V10.2901H58.6399H58.715L59.9825 12.1311H61.616ZM59.9543 7.92035C59.9543 8.63787 59.4849 9.07217 58.5554 9.07217H57.3162V6.76852H58.5554C59.4849 6.76852 59.9543 7.19338 59.9543 7.92035Z" fill="white"/>
<path d="M65.8816 12.2444C67.9471 12.2444 69.4773 10.7999 69.4773 8.8267C69.4773 6.85349 67.9471 5.409 65.8816 5.409C63.8068 5.409 62.2859 6.86294 62.2859 8.8267C62.2859 10.7905 63.8068 12.2444 65.8816 12.2444ZM65.8816 10.9415C64.7081 10.9415 63.8256 10.0824 63.8256 8.8267C63.8256 7.57102 64.7081 6.71188 65.8816 6.71188C67.0552 6.71188 67.9377 7.57102 67.9377 8.8267C67.9377 10.0824 67.0552 10.9415 65.8816 10.9415Z" fill="white"/>
<path d="M75.1455 5.52229V9.53478L71.8784 5.52229H70.6204V12.1311H72.1225V8.11861L75.399 12.1311H76.6477V5.52229H75.1455Z" fill="white"/>
<path d="M79.5638 12.1311H81.0848V6.76852H83.1877V5.52229H77.4609V6.76852H79.5638V12.1311Z" fill="white"/>
<path d="M60.0206 28.9833H63.064L57.4606 16.4518H54.5962L49.0107 28.9833H51.9825L53.0925 26.298H58.9107L60.0206 28.9833ZM54.0234 24.096L56.0105 19.2982L57.9977 24.096H54.0234Z" fill="white"/>
<path d="M73.5659 22.4669C74.5863 21.9299 75.2308 20.9631 75.2308 19.71C75.2308 17.7586 73.6196 16.4518 70.4867 16.4518H64.3641V28.9833H70.8448C74.1388 28.9833 75.8574 27.7302 75.8574 25.564C75.8574 23.9886 74.9623 22.9145 73.5659 22.4669ZM70.1287 18.6358C71.5429 18.6358 72.3127 19.1192 72.3127 20.1038C72.3127 21.0884 71.5429 21.5897 70.1287 21.5897H67.2464V18.6358H70.1287ZM70.6299 26.7993H67.2464V23.7022H70.6299C72.1337 23.7022 72.9393 24.2034 72.9393 25.2597C72.9393 26.3338 72.1337 26.7993 70.6299 26.7993Z" fill="white"/>
<path d="M87.4159 28.9833H90.4593L84.8559 16.4518H81.9916L76.4061 28.9833H79.3778L80.4878 26.298H86.306L87.4159 28.9833ZM81.4187 24.096L83.4058 19.2982L85.393 24.096H81.4187Z" fill="white"/>
<path d="M100.388 16.4518V24.0602L94.1584 16.4518H91.7595V28.9833H94.6238V21.3749L100.872 28.9833H103.253V16.4518H100.388Z" fill="white"/>
<path d="M106.218 28.9833H111.911C116.01 28.9833 118.821 26.5128 118.821 22.7175C118.821 18.9223 116.01 16.4518 111.911 16.4518H106.218V28.9833ZM109.118 26.6023V18.8328H111.767C114.256 18.8328 115.885 20.3186 115.885 22.7175C115.885 25.1164 114.256 26.6023 111.767 26.6023H109.118Z" fill="white"/>
<path d="M127.077 29.1982C131.015 29.1982 133.933 26.4591 133.933 22.7175C133.933 18.976 131.015 16.2369 127.077 16.2369C123.12 16.2369 120.22 18.9939 120.22 22.7175C120.22 26.4412 123.12 29.1982 127.077 29.1982ZM127.077 26.7277C124.839 26.7277 123.156 25.0985 123.156 22.7175C123.156 20.3366 124.839 18.7074 127.077 18.7074C129.315 18.7074 130.997 20.3366 130.997 22.7175C130.997 25.0985 129.315 26.7277 127.077 26.7277Z" fill="white"/>
<path d="M144.742 16.4518V24.0602L138.512 16.4518H136.113V28.9833H138.977V21.3749L145.225 28.9833H147.606V16.4518H144.742Z" fill="white"/>
<path d="M156.64 29.1982C160.578 29.1982 163.497 26.4591 163.497 22.7175C163.497 18.976 160.578 16.2369 156.64 16.2369C152.684 16.2369 149.783 18.9939 149.783 22.7175C149.783 26.4412 152.684 29.1982 156.64 29.1982ZM156.64 26.7277C154.402 26.7277 152.719 25.0985 152.719 22.7175C152.719 20.3366 154.402 18.7074 156.64 18.7074C158.878 18.7074 160.561 20.3366 160.561 22.7175C160.561 25.0985 158.878 26.7277 156.64 26.7277Z" fill="white"/>
</svg>
